<mxfile host="app.diagrams.net" modified="2023-10-06T01:03:29.310Z" agent="Mozilla/5.0 (Windows NT 10.0; Win64; x64) AppleWebKit/537.36 (KHTML, like Gecko) Chrome/114.0.0.0 Safari/537.36" etag="txpKFEDIaCRM2T7Lyn0z" version="22.0.3" type="github">
  <diagram name="Page-1" id="LCqvZXncQZgciu-3qI7d">
    <mxGraphModel dx="2239" dy="774" grid="1" gridSize="10" guides="1" tooltips="1" connect="1" arrows="1" fold="1" page="1" pageScale="1" pageWidth="850" pageHeight="1100" math="0" shadow="0">
      <root>
        <mxCell id="0" />
        <mxCell id="1" parent="0" />
        <mxCell id="lVHENPTHyyZ4LTgk3K9O-1" value="hey do you wanna go on an adventure?&amp;nbsp;&lt;br&gt;yes .. or no?&amp;nbsp;" style="rounded=1;whiteSpace=wrap;html=1;" vertex="1" parent="1">
          <mxGeometry x="320" y="20" width="180" height="60" as="geometry" />
        </mxCell>
        <mxCell id="lVHENPTHyyZ4LTgk3K9O-2" value="yes" style="rounded=1;whiteSpace=wrap;html=1;" vertex="1" parent="1">
          <mxGeometry x="170" y="90" width="120" height="60" as="geometry" />
        </mxCell>
        <mxCell id="lVHENPTHyyZ4LTgk3K9O-3" value="no" style="rounded=1;whiteSpace=wrap;html=1;" vertex="1" parent="1">
          <mxGeometry x="350" y="100" width="120" height="60" as="geometry" />
        </mxCell>
        <mxCell id="lVHENPTHyyZ4LTgk3K9O-4" value="literally anything else" style="rounded=1;whiteSpace=wrap;html=1;" vertex="1" parent="1">
          <mxGeometry x="520" y="100" width="120" height="60" as="geometry" />
        </mxCell>
        <mxCell id="lVHENPTHyyZ4LTgk3K9O-6" value="" style="edgeStyle=none;orthogonalLoop=1;jettySize=auto;html=1;rounded=0;" edge="1" parent="1">
          <mxGeometry width="100" relative="1" as="geometry">
            <mxPoint x="310" y="70" as="sourcePoint" />
            <mxPoint x="270" y="90" as="targetPoint" />
            <Array as="points" />
          </mxGeometry>
        </mxCell>
        <mxCell id="lVHENPTHyyZ4LTgk3K9O-7" value="wait how old are you?&amp;nbsp;" style="rounded=1;whiteSpace=wrap;html=1;" vertex="1" parent="1">
          <mxGeometry y="170" width="120" height="60" as="geometry" />
        </mxCell>
        <mxCell id="lVHENPTHyyZ4LTgk3K9O-8" value="whatever ... how old were you anyway.." style="rounded=1;whiteSpace=wrap;html=1;" vertex="1" parent="1">
          <mxGeometry x="340" y="210" width="120" height="60" as="geometry" />
        </mxCell>
        <mxCell id="lVHENPTHyyZ4LTgk3K9O-9" value="what?&amp;nbsp; what language is that... i asked if you wanna go on an adventure" style="rounded=1;whiteSpace=wrap;html=1;" vertex="1" parent="1">
          <mxGeometry x="600" y="210" width="160" height="60" as="geometry" />
        </mxCell>
        <mxCell id="lVHENPTHyyZ4LTgk3K9O-10" value="good.. older than 13 years old.. i cant have babies on my adventure team.. is that okay with you??&amp;nbsp;" style="rounded=1;whiteSpace=wrap;html=1;" vertex="1" parent="1">
          <mxGeometry x="-520" y="480" width="260" height="100" as="geometry" />
        </mxCell>
        <mxCell id="lVHENPTHyyZ4LTgk3K9O-11" value="hmm you were old enough.. are you sure you didnt wanna adventure with me?&amp;nbsp;" style="rounded=1;whiteSpace=wrap;html=1;" vertex="1" parent="1">
          <mxGeometry x="110" y="460" width="240" height="80" as="geometry" />
        </mxCell>
        <mxCell id="lVHENPTHyyZ4LTgk3K9O-12" value="dude you are too young&amp;nbsp;í ½í¹„ maybe you can come if you arent a baby.. are you a baby?&amp;nbsp;&amp;nbsp;" style="rounded=1;whiteSpace=wrap;html=1;" vertex="1" parent="1">
          <mxGeometry x="-140" y="460" width="170" height="110" as="geometry" />
        </mxCell>
        <mxCell id="lVHENPTHyyZ4LTgk3K9O-13" value="" style="edgeStyle=none;orthogonalLoop=1;jettySize=auto;html=1;rounded=0;entryX=0.6;entryY=-0.033;entryDx=0;entryDy=0;entryPerimeter=0;" edge="1" parent="1" source="lVHENPTHyyZ4LTgk3K9O-7" target="lVHENPTHyyZ4LTgk3K9O-12">
          <mxGeometry width="100" relative="1" as="geometry">
            <mxPoint x="150" y="220" as="sourcePoint" />
            <mxPoint x="190" y="260" as="targetPoint" />
            <Array as="points" />
          </mxGeometry>
        </mxCell>
        <mxCell id="lVHENPTHyyZ4LTgk3K9O-16" value="" style="edgeStyle=none;orthogonalLoop=1;jettySize=auto;html=1;rounded=0;entryX=0.75;entryY=0;entryDx=0;entryDy=0;exitX=0;exitY=0.75;exitDx=0;exitDy=0;" edge="1" parent="1" source="lVHENPTHyyZ4LTgk3K9O-2" target="lVHENPTHyyZ4LTgk3K9O-7">
          <mxGeometry width="100" relative="1" as="geometry">
            <mxPoint x="90" y="140" as="sourcePoint" />
            <mxPoint x="190" y="140" as="targetPoint" />
            <Array as="points" />
          </mxGeometry>
        </mxCell>
        <mxCell id="lVHENPTHyyZ4LTgk3K9O-17" value="" style="edgeStyle=none;orthogonalLoop=1;jettySize=auto;html=1;rounded=0;entryX=0.75;entryY=0;entryDx=0;entryDy=0;" edge="1" parent="1" source="lVHENPTHyyZ4LTgk3K9O-7" target="lVHENPTHyyZ4LTgk3K9O-10">
          <mxGeometry width="100" relative="1" as="geometry">
            <mxPoint x="-120" y="280" as="sourcePoint" />
            <mxPoint x="-20" y="280" as="targetPoint" />
            <Array as="points" />
          </mxGeometry>
        </mxCell>
        <mxCell id="lVHENPTHyyZ4LTgk3K9O-18" value="yeah you werent old enough. go be a bubble blowing baby on someone else&#39;s time&amp;nbsp;" style="rounded=1;whiteSpace=wrap;html=1;" vertex="1" parent="1">
          <mxGeometry x="400" y="460" width="220" height="80" as="geometry" />
        </mxCell>
      </root>
    </mxGraphModel>
  </diagram>
</mxfile>
